<?xml version="1.0" encoding="utf-8"?>
<!-- Generator: Adobe Illustrator 19.0.0, SVG Export Plug-In . SVG Version: 6.00 Build 0)  -->
<svg version="1.1" id="layer" xmlns="http://www.w3.org/2000/svg" xmlns:xlink="http://www.w3.org/1999/xlink" x="0px" y="0px"
	 viewBox="-153 -46 652 652" style="enable-background:new -153 -46 652 652;" xml:space="preserve">
<style type="text/css">
	.st0{fill:#364C5C;}
</style>
<path class="st0" d="M0.2,320.1v-2.6c-12-9.4-26-26.2-42.1-50.3l-17.8-26.7l9.4-11.4c5.3-6.4,12.1-13,20.4-19.8
	c8.3-6.8,16-11.8,23-15.2v-3h-47.3v3c2.1,2.1,3.5,5.2,4,9.1c0.5,3.9,0.1,8.1-1.4,12.7c-1.5,4.5-4.1,9.2-8,14.2l-25.3,32.3v3
	l17.6,26.3c10,15,18,24.7,24.2,29.1c6.2,4.4,12.6,6.6,19.2,6.6c5,0,9.7-0.7,13.9-2.1C-5.7,324-2.3,322.2,0.2,320.1z M-87.6,217.8
	c0-11.6,2.9-19.4,8.8-23.5v-3h-52.5v3c5.9,3.9,8.8,11.7,8.8,23.5v81.4c0,11.8-2.9,19.7-8.8,23.5v3h52.5v-3
	c-5.9-4.3-8.8-12.1-8.8-23.5V217.8z M174.7,224c-2.9-1.3-5.6-1.9-8.3-1.9c-5.3,0-10.7,2-16.3,6c-5.5,4-10.3,9.4-14.5,16.2v-24.1
	L94,232.7v3c2.3,1.1,4.3,3.1,6.1,6c1.8,2.9,2.7,6.4,2.7,10.4v47.1c0,11.6-3.3,19.4-9.8,23.5v3h56.4v-3c-4.5-2-7.9-4.8-10.3-8.5
	c-2.3-3.6-3.5-8.7-3.5-15.1v-49.1c2.5-2.5,5.2-4.6,8.1-6.1c2.9-1.5,5.2-2.4,6.9-2.5c0.3,4.4,1.9,8.2,5,11.5
	c3.1,3.3,6.8,4.9,11.2,4.9c5,0,9.2-1.7,12.6-5.2c3.3-3.5,5-7.8,5-13c0-3.2-0.9-6.3-2.7-9.3C179.9,227.4,177.6,225.3,174.7,224z
	 M206.4,209.9c3,1.3,5.7,1.9,8.1,1.9c3.9,0,7.4-1.1,10.7-3.3c3.3-2.2,5.5-4.8,6.8-7.8c1.3-3,1.9-5.7,1.9-8.1c0-5.3-1.9-9.9-5.7-13.7
	c-3.8-3.8-8.3-5.7-13.7-5.7c-3.8,0-7.4,1.1-10.6,3.3c-3.2,2.2-5.4,4.8-6.7,7.9c-1.3,3.1-1.9,5.8-1.9,8.2c0,3.9,1.1,7.4,3.3,10.6
	C200.9,206.4,203.4,208.6,206.4,209.9z M234.4,312.5c-1.5-4.3-2.3-8.7-2.3-13.4v-76.8l-41.7,12.6v3c2.3,1.1,4.3,3.1,6.1,6
	c1.8,2.9,2.7,6.4,2.7,10.4v44.9c0,11.6-3.3,19.4-9.8,23.5v3h52.5v-3C238.4,320.1,235.9,316.8,234.4,312.5z M337.2,304.5v-40.9
	c0-12.2-1.8-21.1-5.4-26.6c-3.6-5.5-8.7-9.4-15.5-11.6c-6.7-2.2-14.7-3.3-24-3.3c-4.8,0-9.9,0.6-15.4,1.8c-5.4,1.2-10,3.1-13.7,5.8
	c-3.7,2.7-6.1,5.4-7.5,8.3c-1.3,2.9-2,5.6-2,8.3c0,4.1,1.4,7.6,4.3,10.5c2.9,2.9,6.3,4.3,10.5,4.3c4.4,0,7.9-1.5,10.7-4.5
	c2.7-3,4.1-6.6,4.1-10.9c0-2-0.5-4.1-1.4-6.2s-2.1-3.9-3.6-5.2c1.2-1.7,3-3.2,5.5-4.3c2.5-1.1,5-1.7,7.5-1.7c3.3,0,5.8,0.6,7.4,1.8
	c1.6,1.2,2.9,2.9,3.8,5c0.9,2.1,1.5,5,1.6,8.7c0.1,3.7,0.2,8.7,0.2,15.1v10c-2.9-0.4-6.3-0.6-10.2-0.6c-8.8,0-16.5,1.4-23.2,4.1
	c-6.7,2.7-11.9,6.5-15.6,11.3c-3.7,4.8-5.5,10.5-5.5,17.2c0,7.4,2.4,13.7,7.3,18.7c4.9,5.1,11.5,7.6,20,7.6c6.2,0,11.9-1.2,17.1-3.6
	c5.1-2.4,9.3-5.5,12.7-9.4c2,4.4,4.8,7.6,8.5,9.8c3.7,2.1,7.6,3.2,11.9,3.2c5.6,0,10.1-0.7,13.6-2.2c3.5-1.5,6.9-3.7,10.4-6.8v-3.6
	h-3.4C340.7,314.5,337.2,311.2,337.2,304.5z M295.1,312.3c-3.9,0-6.9-1.5-9.1-4.4c-2.2-2.9-3.3-6.6-3.3-11c0-4.8,1-8.9,3-12.4
	c2-3.5,4.7-5.9,8.2-7.2c3.5-1.3,6.9-2,10.4-2v24.5c0,2.9,0.2,5.6,0.6,8C302.2,310.8,299,312.3,295.1,312.3z M462.7,307.4
	c-1.8-3.6-2.7-7.4-2.7-11.4V175.8l-39.6,11.9v3c2.3,1.1,4.3,3.1,6.1,6c1.8,2.9,2.7,6.4,2.7,10.4v21.8c-2.8-2.1-6.2-3.7-10.4-4.8
	c-4.1-1.1-8.2-1.6-12.2-1.6c-15.3,0-27.4,5.1-36.3,15.4c-8.9,10.2-13.4,23.9-13.4,40.9c0,8.4,1.2,15.8,3.7,22.1
	c2.5,6.4,5.6,11.6,9.4,15.6c3.8,4,8,6.8,12.6,8.6c4.6,1.7,9.1,2.6,13.7,2.6c6.5,0,12.7-1.8,18.4-5.5c5.8-3.7,10.6-8.3,14.5-14.1
	v19.4l39.6-8.5v-3C466.5,313.8,464.4,311,462.7,307.4z M429.1,303.1c-5.5,2.3-10.4,3.4-14.8,3.4c-5.1,0-9.4-1.6-13.1-4.8
	c-3.7-3.2-6.3-7.8-7.9-13.9c-1.6-6-2.4-12.5-2.4-19.2c0-12.5,1.8-22.2,5.5-29.1c3.7-6.9,8.6-10.4,14.9-10.4c4.4,0,8.3,1.9,11.9,5.7
	c3.5,3.8,5.5,9.5,5.9,17.1L429.1,303.1L429.1,303.1z M51.4,231.4c4.9,3.6,7.6,9.2,8.2,16.6c0.5,7.4-0.5,14.8-3.1,22.2L49.1,292
	c-9-12.7-14-22.3-16.8-28.6c-3.2-7.9-5-14.2-5-18.7c0-6,1.9-10.4,5.8-13.3v-2.9h-57.2v2.9c3,1.6,6.6,5,10.8,10.4
	c3.1,3.9,6.3,9.1,9.6,15.5c1.3,2.7,16.8,34.9,37.9,67.4c-1.9,3.6-3.2,5.9-3.2,5.9c-3.4,6.2-7.5,11.5-12.4,15.8
	c-4.9,4.3-10.5,8-16.8,10.9c-6.3,2.9-12.8,4.9-19.5,5.9l0.6,2.9c2.2,3.2,5,5.8,8.3,7.8c3.4,1.9,7.1,2.9,11.3,2.9
	c4.5,0,8.6-1,12.3-3.1c3.7-2.1,6.9-4.8,9.7-8.3c2.8-3.4,5.4-7.5,7.8-12.3c2.4-4.8,6.1-15.1,11.2-30.9l25.2-63.1
	c1.6-4.1,3.7-8.2,6.3-12.2c2.7-4,5.4-7.3,8.2-9.9c2.8-2.6,5.3-4.5,7.5-5.6v-2.9H51.4L51.4,231.4C51.4,231.4,51.4,231.4,51.4,231.4z"
	/>
</svg>
