<?xml version="1.0" encoding="utf-8"?>
<!-- Generator: Adobe Illustrator 28.0.0, SVG Export Plug-In . SVG Version: 6.00 Build 0)  -->
<svg version="1.1" id="Calque_1" xmlns="http://www.w3.org/2000/svg" xmlns:xlink="http://www.w3.org/1999/xlink" x="0px" y="0px"
	 viewBox="0 0 2000 2000" style="enable-background:new 0 0 2000 2000;" xml:space="preserve">
<g>
	<path d="M1590.4,401.52c-0.28,21.51-5.64,41.55-16.36,60.12c-108.18,187.43-216.38,374.85-324.58,562.28
		c-106.37,184.25-212.73,368.5-319.1,552.75c-20.22,35.03-40.11,70.27-60.78,105.03c-25.43,42.76-63.61,63.33-113.2,61.43
		c-54.28-2.08-102.89-46.26-111.52-99.8c-4.84-30.03,0.66-57.79,15.83-84.05c131.08-226.88,262.06-453.81,393.07-680.73
		c103.46-179.2,206.88-358.43,310.38-537.6c25.93-44.88,76.77-68.01,127.76-58.46c49.63,9.29,88.91,49.88,96.75,100.15
		C1589.61,388.88,1589.83,395.22,1590.4,401.52z"/>
	<path d="M980,824.79c-0.08,63.23-48.87,116.49-111.72,120.52c-49.87,3.2-89.03-17.05-114.13-60.13
		c-78.29-134.34-155.69-269.19-233.4-403.86c-10.23-17.73-21.4-35.04-30.14-53.49c-35.58-75.07,13.01-162.54,95.74-171.4
		c51.16-5.48,92.06,14.66,117.94,59.03c87.08,149.25,173.05,299.15,259.42,448.81C974.51,782.97,979.93,803.18,980,824.79z"/>
	<path d="M658.63,1744.45c-9.39-1.54-18.97-2.34-28.13-4.73c-57.01-14.92-94.64-67.76-90.35-126.53
		c1.34-18.37,6.71-35.58,15.94-51.56c77.65-134.51,155.31-269.01,232.96-403.52c33.21-57.52,66.45-115.03,99.58-172.6
		c1.81-3.15,3.91-4.75,7.5-5.63c30.86-7.56,57.36-22.77,79.15-45.99c0.9-0.96,1.65-2.05,3.38-2.38
		c-5.08,8.85-10.15,17.71-15.26,26.55c-87.56,151.66-175.13,303.32-262.69,454.98c-24.64,42.67-49.25,85.36-73.92,128.01
		c-38.28,66.18-26.24,147.07,29.67,199.06c0.93,0.86,1.89,1.68,2.84,2.51C659.08,1743.24,658.85,1743.85,658.63,1744.45z"/>
	<path d="M444.21,337.66c-1.2,11.15-2.88,22-3.45,32.92c-1.59,30.92,6.02,59.7,21.45,86.44c40.18,69.63,80.41,139.23,120.61,208.86
		c45.61,78.99,91.16,158.01,136.82,236.97c25.88,44.76,64.74,70.89,115.83,81.06c-7.66,2.11-15.22,4.86-23.01,6.22
		c-52.95,9.23-101.74-13.68-128.66-60.26C597.88,781.14,511.97,632.4,426.13,483.62c-26.29-45.57-20.83-101.29,13.52-141.07
		C441.13,340.84,442.74,339.24,444.21,337.66z"/>
	<path d="M1363.86,280.47c-6.48,7.08-13.71,13.23-18.77,20.83c-11.98,17.98-23.4,36.36-34.22,55.07
		c-99.22,171.59-198.27,343.27-297.37,514.93c-0.82,1.43-1.74,2.8-2.44,3.91c1.99-10.08,4.47-20.32,5.95-30.7
		c3.15-22.07,1.14-43.85-5.25-65.18c-1-3.34-0.66-5.9,1.06-8.9c82.77-143.23,165.29-286.6,248.3-429.69
		c21.91-37.76,55.77-57.42,99.3-60.42C1361.53,280.26,1362.62,280.42,1363.86,280.47z"/>
</g>
</svg>
