<?xml version="1.0" encoding="utf-8"?>
<!-- Generator: Adobe Illustrator 28.0.0, SVG Export Plug-In . SVG Version: 6.00 Build 0)  -->
<svg version="1.1" id="Calque_1" xmlns="http://www.w3.org/2000/svg" xmlns:xlink="http://www.w3.org/1999/xlink" x="0px" y="0px"
	 viewBox="0 0 2000 2000" style="enable-background:new 0 0 2000 2000;" xml:space="preserve">
<style type="text/css">
	.st0{fill-rule:evenodd;clip-rule:evenodd;fill:#323232;}
	.st1{fill-rule:evenodd;clip-rule:evenodd;fill:#FFFFFF;}
	.st2{fill-rule:evenodd;clip-rule:evenodd;}
	.st3{fill:#FFFFFF;}
</style>
<g>
	<g>
		<g>
			<path class="st0" d="M906.29,575.33c0,205.49-114.57,384.23-283.31,475.81c-30.07-20.79-62.78-38.03-97.52-51.14
				c129.95-49.03,231.46-155.99,273.06-289.4h0c0.52-1.66,1.02-3.32,1.52-4.98l0.78-2.62c0.57-1.95,1.13-3.91,1.68-5.88l0.62-2.26
				c0.51-1.89,1.02-3.79,1.51-5.69l0.67-2.63c0.51-2.03,1.01-4.06,1.49-6.1l0.49-2.08c0.47-2.02,0.93-4.06,1.37-6.1l0.47-2.19
				c0.46-2.18,0.91-4.36,1.34-6.55l0.19-0.93h-0.01c5.5-28.24,8.39-57.41,8.39-87.26H906.29L906.29,575.33z"/>
			<path class="st0" d="M1093.71,1424.67c0-205.49,114.57-384.22,283.31-475.81c30.07,20.79,62.78,38.03,97.52,51.14
				c-129.95,49.03-231.46,155.99-273.06,289.4h0c-0.52,1.66-1.02,3.32-1.52,4.98l-0.78,2.62c-0.57,1.95-1.13,3.91-1.68,5.88
				l-0.62,2.26c-0.51,1.89-1.02,3.79-1.51,5.69l-0.67,2.63c-0.51,2.03-1.01,4.06-1.49,6.1l-0.49,2.08
				c-0.47,2.02-0.93,4.06-1.37,6.09l-0.47,2.19c-0.46,2.18-0.91,4.36-1.34,6.55l-0.19,0.93h0.01c-5.5,28.24-8.39,57.41-8.39,87.26
				H1093.71L1093.71,1424.67z"/>
			<path class="st0" d="M1136.22,781c80.95,196.79,274.53,335.35,500.51,335.35v-87.26c-29.85,0-59.02-2.9-87.26-8.41v0.03
				c-180.59-35.17-322.88-177.42-358.09-357.99L1136.22,781L1136.22,781z"/>
			<path class="st0" d="M865.78,1219c-80.95-196.78-274.53-335.35-500.51-335.35v87.26c29.85,0,59.02,2.9,87.26,8.41v-0.03
				c180.59,35.17,322.88,177.42,358.09,357.99L865.78,1219L865.78,1219z"/>
			<path class="st1" d="M1327.4,575.33l-396.05,849.34h-96.28l40.69-87.26L1033.09,1000l157.34-337.41l40.69-87.26H1327.4
				L1327.4,575.33z M770.88,1424.67H674.6l396.06-849.34h96.28l-40.69,87.26L968.91,1000l-157.34,337.41L770.88,1424.67
				L770.88,1424.67z"/>
			<path class="st0" d="M760.86,575.33c0,218.48-177.11,395.59-395.59,395.59v-87.26c170.28,0,308.32-138.04,308.32-308.32H760.86
				L760.86,575.33z"/>
			<path class="st0" d="M760.86,1424.67c0-218.47-177.11-395.59-395.59-395.59v87.26c170.28,0,308.32,138.04,308.32,308.32H760.86
				L760.86,1424.67z"/>
			<path class="st0" d="M1239.14,1424.67c0-218.47,177.11-395.59,395.59-395.59v87.26c-170.28,0-308.32,138.04-308.32,308.32
				H1239.14L1239.14,1424.67z"/>
			<path class="st0" d="M1241.14,575.33c0,218.48,177.11,395.59,395.59,395.59v-87.26c-170.28,0-308.32-138.04-308.32-308.32
				H1241.14L1241.14,575.33z"/>
		</g>
		<path class="st1" d="M910.69,1007.99c10.81-24.79,23.67-48.62,35.72-72.82C872.6,878.81,816.57,800.34,788.28,709.6h0
			c-0.52-1.66-1.02-3.32-1.52-4.98l-0.78-2.62c-0.57-1.95-1.13-3.91-1.68-5.88l-0.62-2.26c-0.51-1.89-1.02-3.79-1.51-5.69
			l-0.67-2.63c-0.51-2.03-1.01-4.06-1.49-6.1l-0.49-2.08c-0.47-2.02-0.93-4.06-1.37-6.09l-0.47-2.19c-0.46-2.18-0.91-4.36-1.34-6.55
			l-0.19-0.93h0.01c-5.5-28.24-8.39-57.41-8.39-87.26H680.5c0,181.79,89.71,342.6,227.23,440.69
			C908.7,1012.66,909.68,1010.31,910.69,1007.99z"/>
		<path class="st1" d="M966.12,876.39c7.98-12.76,15.96-25.52,24.03-38.23c7.71-12.13,15.96-23.87,23.87-35.79
			C952.08,745.98,913.2,664.69,913.2,574.33h-87.26C825.94,695.45,880.39,803.83,966.12,876.39z"/>
	</g>
</g>
<rect x="3204.4" y="886.75" class="st2" width="2000" height="1000"/>
<g>
	<path class="st0" d="M4163.77,1101.99c0,89.09-49.67,166.58-122.83,206.29c-13.04-9.01-27.22-16.49-42.28-22.17
		c56.34-21.26,100.35-67.63,118.39-125.47h0c0.22-0.72,0.44-1.44,0.66-2.16l0.34-1.14c0.25-0.85,0.49-1.7,0.73-2.55l0.27-0.98
		c0.22-0.82,0.44-1.64,0.65-2.47l0.29-1.14c0.22-0.88,0.44-1.76,0.65-2.64l0.21-0.9c0.21-0.88,0.4-1.76,0.59-2.64l0.21-0.95
		c0.2-0.94,0.39-1.89,0.58-2.84l0.08-0.4h0c2.39-12.24,3.64-24.89,3.64-37.83H4163.77L4163.77,1101.99z"/>
	<path class="st0" d="M4245.02,1470.23c0-89.09,49.67-166.58,122.83-206.29c13.04,9.01,27.22,16.49,42.28,22.17
		c-56.34,21.26-100.35,67.63-118.39,125.47h0c-0.22,0.72-0.44,1.44-0.66,2.16l-0.34,1.14c-0.25,0.85-0.49,1.7-0.73,2.55l-0.27,0.98
		c-0.22,0.82-0.44,1.64-0.65,2.47l-0.29,1.14c-0.22,0.88-0.44,1.76-0.65,2.64l-0.21,0.9c-0.2,0.88-0.4,1.76-0.59,2.64l-0.2,0.95
		c-0.2,0.94-0.39,1.89-0.58,2.84l-0.08,0.4h0c-2.39,12.24-3.64,24.89-3.64,37.83H4245.02L4245.02,1470.23z"/>
	<path class="st0" d="M4262.59,1191.16c35.1,85.32,119.03,145.39,217,145.39v-37.83c-12.94,0-25.59-1.26-37.83-3.64v0.01
		c-78.3-15.25-139.98-76.92-155.25-155.21L4262.59,1191.16L4262.59,1191.16z"/>
	<path class="st0" d="M4146.21,1381.06c-35.1-85.32-119.03-145.39-217-145.39v37.83c12.94,0,25.59,1.26,37.83,3.65v-0.01
		c78.3,15.25,139.98,76.92,155.25,155.21L4146.21,1381.06L4146.21,1381.06z"/>
	<path class="st1" d="M4345.91,1101.99l-171.71,368.24h-41.74l17.64-37.83l68.21-146.29l68.21-146.29l17.64-37.83H4345.91
		L4345.91,1101.99z M4104.62,1470.23h-41.74l171.71-368.24h41.74l-17.64,37.83l-68.21,146.29l-68.21,146.29L4104.62,1470.23
		L4104.62,1470.23z"/>
	<path class="st0" d="M4100.71,1101.99c0,94.72-76.79,171.51-171.51,171.51v-37.83c73.83,0,133.68-59.85,133.68-133.68H4100.71
		L4100.71,1101.99z"/>
	<path class="st0" d="M4100.71,1470.23c0-94.72-76.79-171.51-171.51-171.51v37.83c73.83,0,133.68,59.85,133.68,133.68H4100.71
		L4100.71,1470.23z"/>
	<path class="st0" d="M4308.08,1470.23c0-94.72,76.79-171.51,171.51-171.51v37.83c-73.83,0-133.68,59.85-133.68,133.68H4308.08
		L4308.08,1470.23z"/>
	<path class="st0" d="M4308.08,1101.99c0,94.72,76.79,171.51,171.51,171.51v-37.83c-73.83,0-133.68-59.85-133.68-133.68H4308.08
		L4308.08,1101.99z"/>
</g>
<path class="st1" d="M4165.67,1290.01c4.69-10.75,10.26-21.08,15.49-31.57c-32-24.44-56.29-58.46-68.56-97.8h0
	c-0.22-0.72-0.44-1.44-0.66-2.16l-0.34-1.14c-0.25-0.85-0.49-1.7-0.73-2.55l-0.27-0.98c-0.22-0.82-0.44-1.64-0.65-2.47l-0.29-1.14
	c-0.22-0.88-0.44-1.76-0.65-2.64l-0.21-0.9c-0.21-0.88-0.4-1.76-0.59-2.64l-0.21-0.95c-0.2-0.94-0.39-1.89-0.58-2.84l-0.08-0.4h0
	c-2.39-12.24-3.64-24.89-3.64-37.83h-37.83c0,78.82,38.89,148.53,98.51,191.07C4164.81,1292.03,4165.24,1291.02,4165.67,1290.01z"/>
<path class="st1" d="M4189.71,1232.95c3.46-5.53,6.92-11.07,10.42-16.57c3.34-5.26,6.92-10.35,10.35-15.52
	c-26.85-24.45-43.71-59.69-43.71-98.87h-37.83C4128.93,1154.5,4152.54,1201.49,4189.71,1232.95z"/>
<path class="st3" d="M3731.94,1632.4v35.09h-20.87v-35.09l-35.22-54.55h24.59l21.26,34.83l21.77-34.83h24.97L3731.94,1632.4z"/>
<path class="st3" d="M3821.32,1669.66c-7.34,0-13.98-1.11-19.91-3.33c-5.93-2.22-10.99-5.38-15.17-9.48
	c-4.18-4.1-7.43-9.05-9.73-14.85c-2.31-5.8-3.46-12.25-3.46-19.34c0-7.09,1.15-13.53,3.46-19.34c2.3-5.8,5.55-10.76,9.73-14.86
	c4.18-4.1,9.24-7.25,15.17-9.48c5.93-2.22,12.57-3.33,19.91-3.33c7.26,0,13.87,1.11,19.85,3.33c5.97,2.22,11.05,5.38,15.24,9.48
	c4.18,4.1,7.43,9.05,9.73,14.86c2.31,5.81,3.46,12.25,3.46,19.34c0,7.09-1.15,13.53-3.46,19.34c-2.3,5.81-5.55,10.76-9.73,14.85
	c-4.18,4.1-9.26,7.26-15.24,9.48C3835.19,1668.55,3828.57,1669.66,3821.32,1669.66z M3821.32,1650.97c4.1,0,7.83-0.68,11.21-2.05
	c3.37-1.36,6.23-3.28,8.58-5.76c2.35-2.48,4.18-5.44,5.51-8.9c1.32-3.46,1.99-7.32,1.99-11.59c0-4.27-0.66-8.13-1.99-11.59
	c-1.32-3.46-3.16-6.42-5.51-8.9c-2.35-2.48-5.21-4.4-8.58-5.76c-3.37-1.36-7.11-2.05-11.21-2.05c-4.1,0-7.81,0.68-11.14,2.05
	c-3.33,1.37-6.19,3.29-8.58,5.76c-2.39,2.48-4.23,5.44-5.51,8.9c-1.28,3.46-1.92,7.32-1.92,11.59c0,4.27,0.64,8.13,1.92,11.59
	c1.28,3.46,3.12,6.42,5.51,8.9c2.39,2.48,5.25,4.4,8.58,5.76C3813.51,1650.28,3817.22,1650.97,3821.32,1650.97z"/>
<path class="st3" d="M3970.89,1577.85v89.64h-20.87v-35.98h-38.03v35.98h-21v-89.64h21v34.7h38.03v-34.7H3970.89z"/>
<path class="st3" d="M4060.14,1651.35h-44.18l-6.66,16.14h-22.41l40.21-89.64h22.41l39.95,89.64h-22.67L4060.14,1651.35z
	 M4023.52,1633.29h29.2l-14.47-35.34L4023.52,1633.29z"/>
<path class="st3" d="M4185.38,1577.85v89.64h-18.82l-40.59-55.45l0.26,24.2v31.25h-20.87v-89.64h18.82l40.59,55.7l-0.26-23.95
	v-31.76H4185.38z"/>
<path class="st3" d="M4307.42,1651.35h-44.18l-6.66,16.14h-22.41l40.21-89.64h22.41l39.95,89.64h-22.67L4307.42,1651.35z
	 M4270.79,1633.29h29.2l-14.47-35.34L4270.79,1633.29z"/>
<path class="st3" d="M4432.65,1577.85v89.64h-18.82l-40.59-55.45l0.26,24.2v31.25h-20.87v-89.64h18.82l40.59,55.7l-0.26-23.95
	v-31.76H4432.65z"/>
<path class="st3" d="M4495.91,1577.85c7,0,13.34,1.07,19.02,3.2c5.68,2.13,10.52,5.14,14.54,9.03c4.01,3.89,7.11,8.6,9.28,14.15
	c2.18,5.55,3.27,11.7,3.27,18.44c0,6.83-1.09,13-3.27,18.5c-2.18,5.51-5.27,10.2-9.28,14.09c-4.01,3.89-8.86,6.9-14.54,9.03
	c-5.68,2.13-12.02,3.2-19.02,3.2h-36.75v-89.64H4495.91z M4495.91,1649.17c3.76,0,7.17-0.62,10.24-1.86
	c3.07-1.24,5.72-3.01,7.94-5.31c2.22-2.31,3.93-5.08,5.12-8.32c1.19-3.24,1.79-6.91,1.79-11.01s-0.62-7.77-1.86-11.01
	c-1.24-3.24-2.95-6.02-5.12-8.32c-2.18-2.31-4.82-4.08-7.94-5.31c-3.12-1.24-6.51-1.86-10.18-1.86h-15.75v53.02H4495.91z"/>
<path class="st3" d="M4596.56,1637.9h-12.16v29.58h-21v-89.64h43.67c4.87,0,9.28,0.73,13.25,2.18c3.97,1.45,7.36,3.52,10.18,6.21
	c2.82,2.69,4.99,5.89,6.53,9.6c1.54,3.71,2.31,7.83,2.31,12.36c0,6.92-1.75,12.79-5.25,17.61c-3.5,4.82-8.54,8.26-15.11,10.31
	l25.36,31.37h-24.97L4596.56,1637.9z M4618.59,1608.45c0-4.1-1.2-7.24-3.59-9.41c-2.39-2.18-5.85-3.27-10.37-3.27h-20.36V1621h20.36
	c4.52,0,7.98-1.07,10.37-3.2C4617.39,1615.67,4618.59,1612.55,4618.59,1608.45z"/>
<path class="st3" d="M4732.94,1649.81v17.67h-69.79v-89.64h68.38v17.67h-48.02v18.14h45.46v16.86h-45.46v19.29H4732.94z"/>
</svg>
